<svg width="89" height="72" viewBox="0 0 89 72" fill="none" xmlns="http://www.w3.org/2000/svg">
<path d="M0 0.765052H8.44694V54.3188H0V0.765052Z" fill="#00153D"/>
<path d="M14.7731 0.765052H26.8292L32.2045 39.0942H32.3581L37.7334 0.765052H49.7895V54.3188H41.8033V13.771H41.6498L35.5065 54.3188H28.4418L22.2986 13.771H22.145V54.3188H14.7731V0.765052Z" fill="#00153D"/>
<path d="M67.9954 55.0838C63.9511 55.0838 60.8539 53.9362 58.7038 51.6411C56.6049 49.3459 55.5554 46.1072 55.5554 41.9249V13.1589C55.5554 8.97662 56.6049 5.7379 58.7038 3.44274C60.8539 1.14758 63.9511 0 67.9954 0C72.0397 0 75.1113 1.14758 77.2103 3.44274C79.3604 5.7379 80.4355 8.97662 80.4355 13.1589V18.8203H72.4493V12.6234C72.4493 9.30815 71.0415 7.65053 68.2258 7.65053C65.4102 7.65053 64.0023 9.30815 64.0023 12.6234V42.537C64.0023 45.8012 65.4102 47.4333 68.2258 47.4333C71.0415 47.4333 72.4493 45.8012 72.4493 42.537V34.3509H80.4355V41.9249C80.4355 46.1072 79.3604 49.3459 77.2103 51.6411C75.1113 53.9362 72.0397 55.0838 67.9954 55.0838Z" fill="#00153D"/>
<path d="M50.8027 56.0265C51.3039 56.0265 51.5546 56.4017 51.5546 57.1521C51.5546 58.5636 50.4446 59.2694 48.2247 59.2694C47.795 59.2694 47.1774 59.189 46.3718 59.0282C46.6045 60.136 46.7925 61.3688 46.9357 62.7268C47.0969 64.0668 47.1774 65.1746 47.1774 66.0501C47.1774 67.9798 46.8641 69.4539 46.2375 70.4723C45.611 71.4908 44.7874 72 43.767 72C42.478 72 41.5561 71.0887 41.0011 69.2663C40.464 67.4438 40.1955 64.6922 40.1955 61.0115C40.1955 57.5809 40.5625 54.1057 41.2965 50.5858C42.0484 47.048 43.0688 44.1267 44.3578 41.8218C45.6647 39.499 47.0969 38.3376 48.6544 38.3376C49.4958 38.3376 50.1492 38.7129 50.6147 39.4633C51.098 40.2137 51.3397 41.2232 51.3397 42.4918C51.3397 46.6907 48.8244 51.2648 43.7939 56.2141C43.6148 57.9651 43.5253 59.5017 43.5253 60.8239C43.5253 62.6642 43.588 64.5492 43.7133 66.4789C43.8386 68.4265 44.0445 69.4003 44.3309 69.4003C44.868 69.4003 45.1365 68.4712 45.1365 66.6129C45.1365 65.2193 45.0381 63.8703 44.8412 62.566C44.6621 61.2616 44.4115 59.8858 44.0893 58.4386C44.0713 58.2063 44.143 57.9115 44.3041 57.5541C44.4831 57.1968 44.6979 56.8841 44.9486 56.6161C45.1992 56.3481 45.423 56.2141 45.6199 56.2141C45.978 56.2141 46.4076 56.2319 46.9089 56.2677C47.07 56.2855 47.258 56.2945 47.4728 56.2945C48.1889 56.2945 48.9856 56.2319 49.8628 56.1069C50.006 56.089 50.1582 56.0711 50.3193 56.0533C50.4804 56.0354 50.6415 56.0265 50.8027 56.0265ZM48.0904 40.991C47.7682 40.991 47.3654 41.5359 46.882 42.6258C46.4166 43.7158 45.9511 45.163 45.4856 46.9676C45.0202 48.7544 44.6174 50.6483 44.2772 52.6495C45.7094 51.0236 46.8104 49.3351 47.5802 47.5841C48.35 45.8152 48.7439 44.1624 48.7618 42.6258C48.7618 41.5359 48.538 40.991 48.0904 40.991Z" fill="#10ABED"/>
<path d="M52.9629 63.6648C51.8529 63.6648 50.9668 63.2628 50.3044 62.4587C49.642 61.6547 49.3108 60.6005 49.3108 59.2962C49.3108 57.8668 49.642 56.5178 50.3044 55.2492C50.9668 53.9628 51.844 52.9354 52.936 52.1671C54.046 51.3809 55.2186 50.9878 56.4539 50.9878C56.8477 50.9878 57.1073 51.0682 57.2326 51.229C57.3758 51.372 57.4922 51.64 57.5817 52.0331C57.9577 51.9616 58.3515 51.9259 58.7633 51.9259C59.6405 51.9259 60.0791 52.2385 60.0791 52.8639C60.0791 53.2391 59.9448 54.1325 59.6763 55.544C59.2645 57.5988 59.0587 59.0282 59.0587 59.8322C59.0587 60.1002 59.1213 60.3147 59.2466 60.4755C59.3899 60.6363 59.5689 60.7167 59.7837 60.7167C60.1239 60.7167 60.5356 60.5023 61.019 60.0734C61.5023 59.6268 62.1558 58.9121 62.9793 57.9293C63.1941 57.6792 63.4358 57.5541 63.7043 57.5541C63.9371 57.5541 64.1161 57.6613 64.2414 57.8757C64.3846 58.0901 64.4562 58.385 64.4562 58.7602C64.4562 59.4749 64.2862 60.0288 63.946 60.4219C63.212 61.3331 62.4333 62.1014 61.6098 62.7268C60.7862 63.3521 59.9896 63.6648 59.2198 63.6648C58.629 63.6648 58.083 63.4683 57.5817 63.0752C57.0983 62.6642 56.7313 62.1103 56.4807 61.4135C55.5498 62.9144 54.3772 63.6648 52.9629 63.6648ZM53.9296 60.9579C54.3235 60.9579 54.6994 60.7256 55.0575 60.261C55.4155 59.7965 55.6751 59.1801 55.8362 58.4118L56.8298 53.4803C56.0779 53.4982 55.3797 53.7841 54.7352 54.338C54.1086 54.874 53.6074 55.5887 53.2314 56.4821C52.8555 57.3754 52.6675 58.3224 52.6675 59.323C52.6675 59.8769 52.7749 60.2878 52.9897 60.5559C53.2225 60.8239 53.5358 60.9579 53.9296 60.9579ZM56.6955 49.2725C56.4449 49.2725 56.2211 49.1832 56.0242 49.0045C55.8452 48.808 55.7557 48.5757 55.7557 48.3077C55.7557 48.1826 55.8004 48.0129 55.8899 47.7985L58.3873 42.2238C58.5484 41.8665 58.7543 41.6074 59.005 41.4466C59.2735 41.2679 59.5689 41.1786 59.8911 41.1786C60.3387 41.1786 60.7325 41.3394 61.0727 41.661C61.4307 41.9826 61.6098 42.3846 61.6098 42.8671C61.6098 43.3673 61.4128 43.8676 61.019 44.3679L57.5549 48.8169C57.3221 49.1207 57.0357 49.2725 56.6955 49.2725Z" fill="#10ABED"/>
<path d="M67.4028 63.6648C65.6484 63.6648 64.2788 63.1734 63.2942 62.1907C62.3275 61.1902 61.8441 59.8769 61.8441 58.251C61.8441 56.8037 62.1305 55.5351 62.7034 54.4452C63.2763 53.3553 64.0192 52.5155 64.9323 51.9259C65.8453 51.3362 66.8031 51.0414 67.8056 51.0414C68.7902 51.0414 69.5511 51.3362 70.0881 51.9259C70.6431 52.4976 70.9206 53.2391 70.9206 54.1504C70.9206 54.9008 70.7505 55.5351 70.4104 56.0533C70.0881 56.5714 69.6585 56.8305 69.1214 56.8305C68.7813 56.8305 68.5038 56.7501 68.289 56.5893C68.092 56.4285 67.9936 56.2051 67.9936 55.9192C67.9936 55.7942 68.0115 55.6512 68.0473 55.4904C68.0831 55.3296 68.1099 55.2135 68.1278 55.142C68.2173 54.874 68.2621 54.6239 68.2621 54.3916C68.2621 54.1593 68.1994 53.9806 68.0741 53.8556C67.9667 53.7305 67.8056 53.6679 67.5908 53.6679C67.179 53.6679 66.7941 53.8556 66.4361 54.2308C66.078 54.5881 65.7916 55.0795 65.5767 55.7048C65.3619 56.3302 65.2545 57.0181 65.2545 57.7685C65.2545 59.8412 66.1586 60.8775 67.9667 60.8775C68.7007 60.8775 69.4884 60.6363 70.3298 60.1538C71.1891 59.6536 72.0306 58.9121 72.8541 57.9293C73.0689 57.6792 73.3106 57.5541 73.5791 57.5541C73.8118 57.5541 73.9909 57.6613 74.1162 57.8757C74.2594 58.0901 74.331 58.385 74.331 58.7602C74.331 59.4391 74.1609 59.993 73.8208 60.4219C72.9794 61.4582 71.9679 62.2622 70.7863 62.834C69.6227 63.3879 68.4948 63.6648 67.4028 63.6648Z" fill="#10ABED"/>
<path d="M75.6781 49.2725C74.9262 49.2725 74.3623 49.1028 73.9863 48.7633C73.6104 48.406 73.4224 47.9146 73.4224 47.2893C73.4224 46.6639 73.6641 46.1457 74.1474 45.7348C74.6487 45.306 75.2663 45.0916 76.0003 45.0916C76.6627 45.0916 77.1998 45.2524 77.6116 45.574C78.0233 45.8956 78.2292 46.3512 78.2292 46.9408C78.2292 47.6555 77.9965 48.2273 77.531 48.6561C77.0655 49.0671 76.4479 49.2725 75.6781 49.2725ZM75.4633 63.6648C74.2996 63.6648 73.4493 63.2539 72.9122 62.4319C72.393 61.61 72.1334 60.5201 72.1334 59.1622C72.1334 58.3582 72.2319 57.3308 72.4288 56.0801C72.6436 54.8115 72.9122 53.6322 73.2344 52.5423C73.3955 51.9705 73.6104 51.5775 73.8789 51.363C74.1474 51.1486 74.5771 51.0414 75.1679 51.0414C76.0809 51.0414 76.5374 51.3452 76.5374 51.9527C76.5374 52.3994 76.3673 53.4357 76.0272 55.0616C75.5975 57.027 75.3827 58.3582 75.3827 59.055C75.3827 59.591 75.4543 60.002 75.5975 60.2878C75.7408 60.5737 75.9824 60.7167 76.3226 60.7167C76.6448 60.7167 77.0476 60.4933 77.531 60.0466C78.0144 59.6 78.6588 58.8942 79.4645 57.9293C79.6793 57.6792 79.921 57.5541 80.1895 57.5541C80.4222 57.5541 80.6013 57.6613 80.7266 57.8757C80.8698 58.0901 80.9414 58.385 80.9414 58.7602C80.9414 59.4749 80.7713 60.0288 80.4312 60.4219C78.6588 62.5838 77.0029 63.6648 75.4633 63.6648Z" fill="#10ABED"/>
<path d="M86.5295 59.7518C86.7264 59.5731 86.9233 59.4838 87.1202 59.4838C87.3351 59.4838 87.5051 59.6089 87.6305 59.859C87.7737 60.0913 87.8453 60.3772 87.8453 60.7167C87.8453 61.4671 87.5768 62.0657 87.0397 62.5124C86.1088 63.2807 85.0525 63.6648 83.871 63.6648C82.1702 63.6648 80.926 62.959 80.1383 61.5475C79.3506 60.1181 78.9568 58.2599 78.9568 55.9729C78.9568 53.793 79.2342 51.3094 79.7892 48.5221C80.3621 45.7348 81.1946 43.3405 82.2866 41.3394C83.3965 39.3382 84.7124 38.3376 86.2341 38.3376C87.0934 38.3376 87.7647 38.7397 88.2481 39.5437C88.7494 40.3299 89 41.4645 89 42.9475C89 45.0737 88.4092 47.5394 87.2277 50.3446C86.064 53.1498 84.4707 55.9192 82.4477 58.653C82.573 59.3855 82.7968 59.9126 83.1191 60.2342C83.4413 60.5559 83.8799 60.7167 84.4349 60.7167C84.7392 60.7167 85.0794 60.6273 85.4553 60.4487C85.8492 60.27 86.2072 60.0377 86.5295 59.7518ZM85.6433 40.991C85.2315 40.991 84.7661 41.7325 84.2469 43.2155C83.7277 44.6985 83.2712 46.5388 82.8774 48.7365C82.4835 50.9342 82.2687 53.0426 82.2329 55.0616C83.504 52.9711 84.5154 50.8806 85.2674 48.7901C86.0193 46.6818 86.3952 44.761 86.3952 43.0279C86.3952 41.6699 86.1446 40.991 85.6433 40.991Z" fill="#10ABED"/>
</svg>
