<svg width="261" height="212" viewBox="0 0 261 212" fill="none" xmlns="http://www.w3.org/2000/svg">
<path d="M0 2.25H24.75V159.75H0V2.25Z" fill="white"/>
<path d="M43.2861 2.25H78.6111L94.3611 114.975H94.8111L110.561 2.25H145.886V159.75H122.486V40.5H122.036L104.036 159.75H83.3361L65.3361 40.5H64.8861V159.75H43.2861V2.25Z" fill="white"/>
<path d="M199.23 162C187.38 162 178.305 158.625 172.005 151.875C165.855 145.125 162.78 135.6 162.78 123.3V38.7C162.78 26.4 165.855 16.875 172.005 10.125C178.305 3.375 187.38 0 199.23 0C211.08 0 220.08 3.375 226.23 10.125C232.53 16.875 235.68 26.4 235.68 38.7V55.35H212.28V37.125C212.28 27.375 208.155 22.5 199.905 22.5C191.655 22.5 187.53 27.375 187.53 37.125V125.1C187.53 134.7 191.655 139.5 199.905 139.5C208.155 139.5 212.28 134.7 212.28 125.1V101.025H235.68V123.3C235.68 135.6 232.53 145.125 226.23 151.875C220.08 158.625 211.08 162 199.23 162Z" fill="white"/>
<path d="M148.855 164.772C150.323 164.772 151.058 165.876 151.058 168.083C151.058 172.234 147.806 174.31 141.301 174.31C140.042 174.31 138.232 174.073 135.872 173.6C136.554 176.858 137.105 180.484 137.524 184.478C137.996 188.419 138.232 191.677 138.232 194.252C138.232 199.927 137.315 204.262 135.479 207.257C133.643 210.252 131.23 211.75 128.24 211.75C124.463 211.75 121.762 209.07 120.136 203.71C118.562 198.35 117.775 190.258 117.775 179.433C117.775 169.344 118.85 159.123 121.001 148.771C123.204 138.367 126.194 129.775 129.971 122.997C133.8 116.166 137.996 112.75 142.56 112.75C145.025 112.75 146.94 113.854 148.304 116.061C149.72 118.268 150.428 121.236 150.428 124.967C150.428 137.316 143.058 150.768 128.318 165.324C127.794 170.474 127.532 174.993 127.532 178.881C127.532 184.294 127.715 189.838 128.082 195.513C128.45 201.24 129.053 204.104 129.892 204.104C131.466 204.104 132.253 201.372 132.253 195.907C132.253 191.808 131.964 187.841 131.387 184.005C130.863 180.169 130.128 176.123 129.184 171.866C129.132 171.183 129.341 170.316 129.813 169.265C130.338 168.214 130.967 167.295 131.702 166.506C132.436 165.718 133.092 165.324 133.669 165.324C134.718 165.324 135.977 165.377 137.446 165.482C137.918 165.534 138.469 165.561 139.098 165.561C141.196 165.561 143.53 165.377 146.101 165.009C146.52 164.956 146.966 164.904 147.438 164.851C147.91 164.799 148.383 164.772 148.855 164.772ZM140.908 120.553C139.964 120.553 138.783 122.156 137.367 125.361C136.003 128.567 134.639 132.823 133.275 138.131C131.912 143.385 130.731 148.955 129.735 154.841C133.931 150.059 137.157 145.093 139.413 139.943C141.668 134.741 142.822 129.881 142.875 125.361C142.875 122.156 142.219 120.553 140.908 120.553Z" fill="#10ABED"/>
<path d="M155.184 187.236C151.932 187.236 149.336 186.054 147.395 183.689C145.454 181.325 144.483 178.225 144.483 174.389C144.483 170.185 145.454 166.217 147.395 162.486C149.336 158.703 151.906 155.682 155.106 153.422C158.358 151.11 161.794 149.954 165.413 149.954C166.567 149.954 167.328 150.19 167.695 150.663C168.114 151.084 168.455 151.872 168.718 153.028C169.819 152.818 170.973 152.713 172.18 152.713C174.75 152.713 176.035 153.632 176.035 155.471C176.035 156.575 175.642 159.202 174.855 163.354C173.648 169.396 173.045 173.6 173.045 175.965C173.045 176.753 173.229 177.384 173.596 177.857C174.016 178.33 174.54 178.566 175.17 178.566C176.166 178.566 177.373 177.936 178.789 176.674C180.205 175.361 182.12 173.259 184.533 170.369C185.162 169.633 185.87 169.265 186.657 169.265C187.339 169.265 187.864 169.58 188.231 170.211C188.651 170.842 188.86 171.709 188.86 172.812C188.86 174.914 188.362 176.543 187.365 177.699C185.215 180.379 182.933 182.639 180.52 184.478C178.107 186.317 175.773 187.236 173.517 187.236C171.786 187.236 170.186 186.658 168.718 185.502C167.301 184.294 166.226 182.665 165.492 180.615C162.764 185.029 159.328 187.236 155.184 187.236ZM158.017 179.275C159.171 179.275 160.272 178.592 161.322 177.226C162.371 175.86 163.131 174.047 163.603 171.787L166.515 157.284C164.311 157.337 162.266 158.178 160.377 159.807C158.541 161.383 157.073 163.485 155.971 166.112C154.87 168.74 154.319 171.525 154.319 174.467C154.319 176.096 154.633 177.305 155.263 178.093C155.945 178.881 156.863 179.275 158.017 179.275ZM166.121 144.909C165.387 144.909 164.731 144.646 164.154 144.121C163.63 143.543 163.367 142.86 163.367 142.072C163.367 141.704 163.498 141.205 163.761 140.574L171.078 124.179C171.55 123.128 172.153 122.366 172.888 121.893C173.675 121.368 174.54 121.105 175.484 121.105C176.796 121.105 177.95 121.578 178.946 122.524C179.996 123.47 180.52 124.652 180.52 126.071C180.52 127.542 179.943 129.014 178.789 130.485L168.639 143.569C167.957 144.463 167.118 144.909 166.121 144.909Z" fill="#10ABED"/>
<path d="M197.494 187.236C192.353 187.236 188.341 185.791 185.456 182.901C182.623 179.959 181.207 176.096 181.207 171.314C181.207 167.058 182.046 163.327 183.725 160.122C185.403 156.916 187.58 154.447 190.255 152.713C192.93 150.979 195.737 150.111 198.674 150.111C201.559 150.111 203.789 150.979 205.362 152.713C206.988 154.394 207.801 156.575 207.801 159.255C207.801 161.462 207.303 163.327 206.306 164.851C205.362 166.375 204.103 167.137 202.53 167.137C201.533 167.137 200.72 166.9 200.09 166.428C199.513 165.955 199.225 165.298 199.225 164.457C199.225 164.089 199.277 163.669 199.382 163.196C199.487 162.723 199.566 162.381 199.618 162.171C199.881 161.383 200.012 160.647 200.012 159.964C200.012 159.281 199.828 158.756 199.461 158.388C199.146 158.02 198.674 157.836 198.045 157.836C196.838 157.836 195.711 158.388 194.661 159.491C193.612 160.542 192.773 161.987 192.144 163.826C191.514 165.666 191.199 167.689 191.199 169.896C191.199 175.991 193.848 179.039 199.146 179.039C201.297 179.039 203.605 178.33 206.07 176.911C208.588 175.439 211.054 173.259 213.467 170.369C214.096 169.633 214.804 169.265 215.591 169.265C216.273 169.265 216.797 169.58 217.165 170.211C217.584 170.842 217.794 171.709 217.794 172.812C217.794 174.809 217.296 176.438 216.299 177.699C213.834 180.747 210.87 183.111 207.408 184.793C203.998 186.422 200.694 187.236 197.494 187.236Z" fill="#10ABED"/>
<path d="M221.741 144.909C219.538 144.909 217.886 144.41 216.784 143.412C215.683 142.361 215.132 140.916 215.132 139.076C215.132 137.237 215.84 135.713 217.256 134.505C218.725 133.244 220.535 132.613 222.685 132.613C224.626 132.613 226.2 133.086 227.406 134.032C228.613 134.978 229.216 136.318 229.216 138.052C229.216 140.154 228.534 141.835 227.17 143.096C225.806 144.305 223.997 144.909 221.741 144.909ZM221.112 187.236C217.702 187.236 215.21 186.028 213.637 183.611C212.116 181.193 211.355 177.988 211.355 173.994C211.355 171.63 211.644 168.608 212.221 164.93C212.85 161.199 213.637 157.731 214.581 154.525C215.053 152.844 215.683 151.688 216.469 151.057C217.256 150.427 218.515 150.111 220.246 150.111C222.921 150.111 224.259 151.005 224.259 152.791C224.259 154.105 223.761 157.153 222.764 161.935C221.505 167.715 220.876 171.63 220.876 173.679C220.876 175.256 221.085 176.464 221.505 177.305C221.925 178.146 222.633 178.566 223.629 178.566C224.574 178.566 225.754 177.909 227.17 176.596C228.586 175.282 230.475 173.206 232.835 170.369C233.465 169.633 234.173 169.265 234.96 169.265C235.642 169.265 236.166 169.58 236.533 170.211C236.953 170.842 237.163 171.709 237.163 172.812C237.163 174.914 236.665 176.543 235.668 177.699C230.475 184.057 225.623 187.236 221.112 187.236Z" fill="#10ABED"/>
<path d="M253.536 175.729C254.113 175.203 254.69 174.94 255.267 174.94C255.897 174.94 256.395 175.308 256.762 176.044C257.182 176.727 257.392 177.568 257.392 178.566C257.392 180.773 256.605 182.533 255.031 183.847C252.304 186.107 249.209 187.236 245.747 187.236C240.763 187.236 237.118 185.161 234.81 181.01C232.502 176.806 231.348 171.341 231.348 164.615C231.348 158.204 232.161 150.9 233.787 142.702C235.465 134.505 237.905 127.463 241.104 121.578C244.357 115.693 248.212 112.75 252.671 112.75C255.189 112.75 257.156 113.932 258.572 116.297C260.041 118.609 260.775 121.946 260.775 126.307C260.775 132.561 259.044 139.812 255.582 148.062C252.172 156.312 247.504 164.457 241.576 172.497C241.944 174.651 242.599 176.201 243.544 177.147C244.488 178.093 245.773 178.566 247.399 178.566C248.291 178.566 249.287 178.303 250.389 177.778C251.543 177.252 252.592 176.569 253.536 175.729ZM250.94 120.553C249.733 120.553 248.369 122.734 246.848 127.096C245.327 131.457 243.989 136.869 242.835 143.333C241.681 149.796 241.052 155.997 240.947 161.935C244.671 155.787 247.635 149.639 249.838 143.49C252.041 137.29 253.143 131.641 253.143 126.544C253.143 122.55 252.408 120.553 250.94 120.553Z" fill="#10ABED"/>
</svg>
